<svg xmlns="http://www.w3.org/2000/svg" viewBox="0 0 512 512">
  <path transform="translate(41.33,355.97) scale(0.4089,-0.4089)" d="M999 -72Q942 -72 942 -5Q942 39 966 112Q975 139 988.5 173.5Q1002 208 1021 248Q1031 269 1036.5 280.5Q1042 292 1046.5 302.5Q1051 313 1057 330Q1062 344 1064.0 353.5Q1066 363 1066 370Q1066 381 1059 381Q1008 381 877 238Q831 187 791.0 139.0Q751 91 719 44L686 -6Q684 -11 679.5 -17.0Q675 -23 670 -30Q667 -31 662 -31Q632 -31 632 -7Q632 -1 635 3Q636 5 645.0 21.5Q654 38 673 79Q774 290 774 381Q774 423 748 423Q706 423 608 316Q551 253 499.5 183.0Q448 113 400 33L378 -4Q362 -30 352 -37Q329 -37 329 -15Q329 -7 333 -3Q387 63 452 209Q487 287 504.5 344.5Q522 402 522 439Q522 539 412 539Q383 539 348.0 532.0Q313 525 272 510Q242 500 216.0 488.0Q190 476 160 459Q101 427 51 389Q-25 331 -25 292Q-25 236 84 236Q95 236 112.0 237.5Q129 239 148 242Q193 249 213 249Q221 249 221 245Q221 241 216 238Q182 214 103 214Q44 214 5 230Q-51 253 -51 301Q-51 353 24 413Q50 434 79.0 452.0Q108 470 145 488Q175 502 202.0 513.0Q229 524 266 535Q310 549 349.5 555.0Q389 561 423 561Q569 561 569 450Q569 361 497 221Q526 255 555.5 291.5Q585 328 611 358Q653 405 687.0 428.0Q721 451 746 451Q806 451 806 361Q806 282 745 135Q780 174 815.5 211.0Q851 248 890 285Q1000 391 1048 406Q1060 410 1070 410Q1101 410 1101 370Q1101 338 1081 289Q1064 246 1049.5 212.5Q1035 179 1018 137Q997 85 987.5 46.5Q978 8 978 -15Q978 -51 1005 -51Q1019 -51 1043 -34Q1068 -17 1071 -17Q1075 -17 1075 -22Q1075 -42 1048 -57Q1020 -72 999 -72Z" fill="#C08A6A"/>
</svg>